<?xml version="1.0" encoding="UTF-8" standalone="no"?>
<svg
   viewBox="0 0 512 512"
   id="vector"
   version="1.1"
   sodipodi:docname="check-solid.svg"
   inkscape:version="1.1 (c4e8f9e, 2021-05-24)"
   xmlns:inkscape="http://www.inkscape.org/namespaces/inkscape"
   xmlns:sodipodi="http://sodipodi.sourceforge.net/DTD/sodipodi-0.dtd"
   xmlns="http://www.w3.org/2000/svg"
   xmlns:svg="http://www.w3.org/2000/svg">
  <defs
     id="defs1089" />
  <sodipodi:namedview
     id="namedview1087"
     pagecolor="#ffffff"
     bordercolor="#666666"
     borderopacity="1.0"
     inkscape:pageshadow="2"
     inkscape:pageopacity="0.0"
     inkscape:pagecheckerboard="0"
     showgrid="false"
     inkscape:zoom="1.1289062"
     inkscape:cx="255.55709"
     inkscape:cy="256"
     inkscape:window-width="1440"
     inkscape:window-height="806"
     inkscape:window-x="0"
     inkscape:window-y="23"
     inkscape:window-maximized="1"
     inkscape:current-layer="vector" />
  <path
     id="path"
     d="M 256 0 C 114.51 0 0 114.5 0 256 C 0 397.49 114.5 512 256 512 C 397.49 512 512 397.5 512 256 C 512 114.51 397.5 0 256 0 Z M 195.086 363.99 C 195.086 363.99 106.664 275.532 100.308 269.188 C 86.169 255.049 86.169 232.041 100.308 217.914 C 114.483 203.739 137.407 203.739 151.582 217.914 L 208.826 275.158 C 215.944 282.276 227.496 282.227 234.554 275.073 L 360.244 147.571 C 374.371 133.239 397.452 133.142 411.699 147.39 C 425.729 161.42 425.814 184.332 411.88 198.471 C 275.387 336.957 249.466 363.978 249.466 363.978 C 234.481 378.962 210.083 378.975 195.086 363.99 Z"
     fill="#5f30e2"
     stroke-width="1"
     style="fill:#dc4a1a;fill-opacity:1;opacity:1" />
</svg>
