<?xml version="1.0" encoding="UTF-8" standalone="no"?>
<svg
   viewBox="0 0 512 512"
   id="vector"
   version="1.1"
   sodipodi:docname="trash-fill.svg"
   inkscape:version="1.1 (c4e8f9e, 2021-05-24)"
   xmlns:inkscape="http://www.inkscape.org/namespaces/inkscape"
   xmlns:sodipodi="http://sodipodi.sourceforge.net/DTD/sodipodi-0.dtd"
   xmlns="http://www.w3.org/2000/svg"
   xmlns:svg="http://www.w3.org/2000/svg">
  <defs
     id="defs856" />
  <sodipodi:namedview
     id="namedview854"
     pagecolor="#ffffff"
     bordercolor="#666666"
     borderopacity="1.0"
     inkscape:pageshadow="2"
     inkscape:pageopacity="0.0"
     inkscape:pagecheckerboard="0"
     showgrid="false"
     inkscape:zoom="1.1289062"
     inkscape:cx="256.44291"
     inkscape:cy="256.44291"
     inkscape:window-width="1440"
     inkscape:window-height="805"
     inkscape:window-x="0"
     inkscape:window-y="23"
     inkscape:window-maximized="0"
     inkscape:current-layer="vector" />
  <path
     id="path"
     d="M 424,64 H 336 V 48 C 336,21.49 314.51,0 288,0 H 224 C 197.49,0 176,21.49 176,48 V 64 H 88 C 65.909,64 48,81.909 48,104.00001 v 31.99998 c 0,8.83701 7.163,16 16,16 h 384 c 8.837,0 16,-7.16299 16,-16 V 104.00001 C 464,81.909 446.091,64 424,64 Z M 208,48 c 0,-8.82 7.18,-16 16,-16 h 64 c 8.82,0 16,7.18 16,16 V 64 H 208 Z M 78.364,183.99999 c -2.855,0 -5.13,2.38601 -4.994,5.23801 l 13.2,277.042 c 1.22,25.64 22.28,45.72 47.94,45.72 h 242.98 c 25.66,0 46.72,-20.08 47.94,-45.72 l 13.2,-277.042 c 0.136,-2.852 -2.139,-5.23801 -4.994,-5.23801 z M 320,224 c 0,-8.84 7.16,-16 16,-16 8.84,0 16,7.16 16,16 v 208 c 0,8.84 -7.16,16 -16,16 -8.84,0 -16,-7.16 -16,-16 z m -80,0 c 0,-8.84 7.16,-16 16,-16 8.84,0 16,7.16 16,16 v 208 c 0,8.84 -7.16,16 -16,16 -8.84,0 -16,-7.16 -16,-16 z m -80,0 c 0,-8.84 7.16,-16 16,-16 8.84,0 16,7.16 16,16 v 208 c 0,8.84 -7.16,16 -16,16 -8.84,0 -16,-7.16 -16,-16 z"
     fill="#5f30e2"
     stroke-width="1"
     style="fill:#dc4a1a;fill-opacity:1" />
</svg>
