<?xml version="1.0" encoding="UTF-8" standalone="no"?>
<svg
   viewBox="0 0 512 512"
   id="vector"
   version="1.1"
   sodipodi:docname="trash-outline.svg"
   inkscape:version="1.1 (c4e8f9e, 2021-05-24)"
   xmlns:inkscape="http://www.inkscape.org/namespaces/inkscape"
   xmlns:sodipodi="http://sodipodi.sourceforge.net/DTD/sodipodi-0.dtd"
   xmlns="http://www.w3.org/2000/svg"
   xmlns:svg="http://www.w3.org/2000/svg">
  <defs
     id="defs858" />
  <sodipodi:namedview
     id="namedview856"
     pagecolor="#ffffff"
     bordercolor="#666666"
     borderopacity="1.0"
     inkscape:pageshadow="2"
     inkscape:pageopacity="0.0"
     inkscape:pagecheckerboard="0"
     showgrid="false"
     inkscape:zoom="1.1289062"
     inkscape:cx="255.55709"
     inkscape:cy="256.44291"
     inkscape:window-width="1440"
     inkscape:window-height="803"
     inkscape:window-x="0"
     inkscape:window-y="23"
     inkscape:window-maximized="0"
     inkscape:current-layer="vector" />
  <path
     id="path_1"
     d="M 424 64 L 336 64 L 336 48 C 336 21.533 314.467 0 288 0 L 224 0 C 197.533 0 176 21.533 176 48 L 176 64 L 88 64 C 65.944 64 48 81.944 48 104 L 48 160 C 48 168.836 55.164 176 64 176 L 72.744 176 L 86.567 466.283 C 87.788 491.919 108.848 512 134.512 512 L 377.488 512 C 403.153 512 424.213 491.919 425.433 466.283 L 439.256 176 L 448 176 C 456.836 176 464 168.836 464 160 L 464 104 C 464 81.944 446.056 64 424 64 Z M 208 48 C 208 39.178 215.178 32 224 32 L 288 32 C 296.822 32 304 39.178 304 48 L 304 64 L 208 64 Z M 80 104 C 80 99.589 83.589 96 88 96 L 424 96 C 428.411 96 432 99.589 432 104 L 432 144 L 80 144 Z M 393.469 464.761 C 393.062 473.306 386.042 480 377.488 480 L 134.512 480 C 125.957 480 118.937 473.306 118.531 464.761 L 104.78 176 L 407.22 176 Z"
     fill="#5f30e2"
     stroke-width="1"
     style="fill:#dc4a1a;fill-opacity:1" />
  <path
     id="path_2"
     d="m 256,448 c 8.836,0 16,-7.164 16,-16 V 224 c 0,-8.836 -7.164,-16 -16,-16 -8.836,0 -16,7.164 -16,16 v 208 c 0,8.836 7.163,16 16,16 z m 80,0 c 8.836,0 16,-7.164 16,-16 V 224 c 0,-8.836 -7.164,-16 -16,-16 -8.836,0 -16,7.164 -16,16 v 208 c 0,8.836 7.163,16 16,16 z m -160,0 c 8.836,0 16,-7.164 16,-16 V 224 c 0,-8.836 -7.164,-16 -16,-16 -8.836,0 -16,7.164 -16,16 v 208 c 0,8.836 7.163,16 16,16 z"
     fill="#5f30e2"
     stroke-width="1"
     style="fill:#dc4a1a;fill-opacity:1" />
</svg>
